<mxfile host="65bd71144e">
    <diagram id="ELyiiMZmigqzXlgS22AG" name="MODELO CONCEITUAL">
        <mxGraphModel dx="1164" dy="779" grid="1" gridSize="10" guides="1" tooltips="1" connect="1" arrows="1" fold="1" page="1" pageScale="1" pageWidth="1100" pageHeight="1700" math="0" shadow="0">
            <root>
                <mxCell id="0"/>
                <mxCell id="1" parent="0"/>
                <mxCell id="4" value="&lt;b&gt;&lt;font style=&quot;font-size: 21px;&quot;&gt;Produto&lt;/font&gt;&lt;/b&gt;" style="whiteSpace=wrap;html=1;align=center;" vertex="1" parent="1">
                    <mxGeometry x="160" y="280" width="220" height="90" as="geometry"/>
                </mxCell>
                <mxCell id="5" value="&lt;b&gt;&lt;font style=&quot;font-size: 21px;&quot;&gt;Categoria&lt;/font&gt;&lt;/b&gt;" style="whiteSpace=wrap;html=1;align=center;" vertex="1" parent="1">
                    <mxGeometry x="730" y="280" width="220" height="90" as="geometry"/>
                </mxCell>
                <mxCell id="7" style="edgeStyle=none;html=1;exitX=0;exitY=0.5;exitDx=0;exitDy=0;fontSize=21;endArrow=none;endFill=0;" edge="1" parent="1" source="6" target="4">
                    <mxGeometry relative="1" as="geometry"/>
                </mxCell>
                <mxCell id="8" style="edgeStyle=none;html=1;exitX=1;exitY=0.5;exitDx=0;exitDy=0;fontSize=21;endArrow=none;endFill=0;" edge="1" parent="1" source="6" target="5">
                    <mxGeometry relative="1" as="geometry"/>
                </mxCell>
                <mxCell id="6" value="TEM" style="shape=rhombus;perimeter=rhombusPerimeter;whiteSpace=wrap;html=1;align=center;fontSize=21;" vertex="1" parent="1">
                    <mxGeometry x="490" y="295" width="120" height="60" as="geometry"/>
                </mxCell>
                <mxCell id="9" value="(1,3)" style="text;html=1;strokeColor=none;fillColor=none;align=center;verticalAlign=middle;whiteSpace=wrap;rounded=0;fontSize=21;" vertex="1" parent="1">
                    <mxGeometry x="660" y="295" width="60" height="30" as="geometry"/>
                </mxCell>
                <mxCell id="10" value="(0,N)" style="text;html=1;strokeColor=none;fillColor=none;align=center;verticalAlign=middle;whiteSpace=wrap;rounded=0;fontSize=21;" vertex="1" parent="1">
                    <mxGeometry x="390" y="290" width="60" height="30" as="geometry"/>
                </mxCell>
            </root>
        </mxGraphModel>
    </diagram>
    <diagram id="Hv4QPecI1WFg5UhihjHh" name="MODELO LÃ“GICO">
        <mxGraphModel dx="1164" dy="779" grid="1" gridSize="10" guides="1" tooltips="1" connect="1" arrows="1" fold="1" page="1" pageScale="1" pageWidth="1100" pageHeight="1700" math="0" shadow="0">
            <root>
                <mxCell id="0"/>
                <mxCell id="1" parent="0"/>
                <mxCell id="4zepP4z_YuRiQ2iafZh4-1" value="produtos" style="shape=table;startSize=30;container=1;collapsible=1;childLayout=tableLayout;fixedRows=1;rowLines=0;fontStyle=1;align=center;resizeLast=1;fontSize=21;" vertex="1" parent="1">
                    <mxGeometry x="10" y="190" width="300" height="210" as="geometry"/>
                </mxCell>
                <mxCell id="4zepP4z_YuRiQ2iafZh4-2" value="" style="shape=tableRow;horizontal=0;startSize=0;swimlaneHead=0;swimlaneBody=0;fillColor=none;collapsible=0;dropTarget=0;points=[[0,0.5],[1,0.5]];portConstraint=eastwest;top=0;left=0;right=0;bottom=1;fontSize=21;" vertex="1" parent="4zepP4z_YuRiQ2iafZh4-1">
                    <mxGeometry y="30" width="300" height="30" as="geometry"/>
                </mxCell>
                <mxCell id="4zepP4z_YuRiQ2iafZh4-3" value="PK" style="shape=partialRectangle;connectable=0;fillColor=none;top=0;left=0;bottom=0;right=0;fontStyle=1;overflow=hidden;fontSize=21;" vertex="1" parent="4zepP4z_YuRiQ2iafZh4-2">
                    <mxGeometry width="40" height="30" as="geometry">
                        <mxRectangle width="40" height="30" as="alternateBounds"/>
                    </mxGeometry>
                </mxCell>
                <mxCell id="4zepP4z_YuRiQ2iafZh4-4" value="id: UUID" style="shape=partialRectangle;connectable=0;fillColor=none;top=0;left=0;bottom=0;right=0;align=left;spacingLeft=6;fontStyle=5;overflow=hidden;fontSize=18;" vertex="1" parent="4zepP4z_YuRiQ2iafZh4-2">
                    <mxGeometry x="40" width="260" height="30" as="geometry">
                        <mxRectangle width="260" height="30" as="alternateBounds"/>
                    </mxGeometry>
                </mxCell>
                <mxCell id="4zepP4z_YuRiQ2iafZh4-5" value="" style="shape=tableRow;horizontal=0;startSize=0;swimlaneHead=0;swimlaneBody=0;fillColor=none;collapsible=0;dropTarget=0;points=[[0,0.5],[1,0.5]];portConstraint=eastwest;top=0;left=0;right=0;bottom=0;fontSize=21;" vertex="1" parent="4zepP4z_YuRiQ2iafZh4-1">
                    <mxGeometry y="60" width="300" height="30" as="geometry"/>
                </mxCell>
                <mxCell id="4zepP4z_YuRiQ2iafZh4-6" value="" style="shape=partialRectangle;connectable=0;fillColor=none;top=0;left=0;bottom=0;right=0;editable=1;overflow=hidden;fontSize=21;" vertex="1" parent="4zepP4z_YuRiQ2iafZh4-5">
                    <mxGeometry width="40" height="30" as="geometry">
                        <mxRectangle width="40" height="30" as="alternateBounds"/>
                    </mxGeometry>
                </mxCell>
                <mxCell id="4zepP4z_YuRiQ2iafZh4-7" value="nome: String(50)" style="shape=partialRectangle;connectable=0;fillColor=none;top=0;left=0;bottom=0;right=0;align=left;spacingLeft=6;overflow=hidden;fontSize=21;" vertex="1" parent="4zepP4z_YuRiQ2iafZh4-5">
                    <mxGeometry x="40" width="260" height="30" as="geometry">
                        <mxRectangle width="260" height="30" as="alternateBounds"/>
                    </mxGeometry>
                </mxCell>
                <mxCell id="4zepP4z_YuRiQ2iafZh4-8" value="" style="shape=tableRow;horizontal=0;startSize=0;swimlaneHead=0;swimlaneBody=0;fillColor=none;collapsible=0;dropTarget=0;points=[[0,0.5],[1,0.5]];portConstraint=eastwest;top=0;left=0;right=0;bottom=0;fontSize=21;" vertex="1" parent="4zepP4z_YuRiQ2iafZh4-1">
                    <mxGeometry y="90" width="300" height="30" as="geometry"/>
                </mxCell>
                <mxCell id="4zepP4z_YuRiQ2iafZh4-9" value="" style="shape=partialRectangle;connectable=0;fillColor=none;top=0;left=0;bottom=0;right=0;editable=1;overflow=hidden;fontSize=21;" vertex="1" parent="4zepP4z_YuRiQ2iafZh4-8">
                    <mxGeometry width="40" height="30" as="geometry">
                        <mxRectangle width="40" height="30" as="alternateBounds"/>
                    </mxGeometry>
                </mxCell>
                <mxCell id="4zepP4z_YuRiQ2iafZh4-10" value="descricao: string(200)" style="shape=partialRectangle;connectable=0;fillColor=none;top=0;left=0;bottom=0;right=0;align=left;spacingLeft=6;overflow=hidden;fontSize=21;" vertex="1" parent="4zepP4z_YuRiQ2iafZh4-8">
                    <mxGeometry x="40" width="260" height="30" as="geometry">
                        <mxRectangle width="260" height="30" as="alternateBounds"/>
                    </mxGeometry>
                </mxCell>
                <mxCell id="4zepP4z_YuRiQ2iafZh4-11" value="" style="shape=tableRow;horizontal=0;startSize=0;swimlaneHead=0;swimlaneBody=0;fillColor=none;collapsible=0;dropTarget=0;points=[[0,0.5],[1,0.5]];portConstraint=eastwest;top=0;left=0;right=0;bottom=0;fontSize=21;" vertex="1" parent="4zepP4z_YuRiQ2iafZh4-1">
                    <mxGeometry y="120" width="300" height="30" as="geometry"/>
                </mxCell>
                <mxCell id="4zepP4z_YuRiQ2iafZh4-12" value="" style="shape=partialRectangle;connectable=0;fillColor=none;top=0;left=0;bottom=0;right=0;editable=1;overflow=hidden;fontSize=21;" vertex="1" parent="4zepP4z_YuRiQ2iafZh4-11">
                    <mxGeometry width="40" height="30" as="geometry">
                        <mxRectangle width="40" height="30" as="alternateBounds"/>
                    </mxGeometry>
                </mxCell>
                <mxCell id="4zepP4z_YuRiQ2iafZh4-13" value="valor: integer" style="shape=partialRectangle;connectable=0;fillColor=none;top=0;left=0;bottom=0;right=0;align=left;spacingLeft=6;overflow=hidden;fontSize=21;" vertex="1" parent="4zepP4z_YuRiQ2iafZh4-11">
                    <mxGeometry x="40" width="260" height="30" as="geometry">
                        <mxRectangle width="260" height="30" as="alternateBounds"/>
                    </mxGeometry>
                </mxCell>
                <mxCell id="4zepP4z_YuRiQ2iafZh4-14" value="" style="shape=tableRow;horizontal=0;startSize=0;swimlaneHead=0;swimlaneBody=0;fillColor=none;collapsible=0;dropTarget=0;points=[[0,0.5],[1,0.5]];portConstraint=eastwest;top=0;left=0;right=0;bottom=0;fontSize=21;" vertex="1" parent="4zepP4z_YuRiQ2iafZh4-1">
                    <mxGeometry y="150" width="300" height="30" as="geometry"/>
                </mxCell>
                <mxCell id="4zepP4z_YuRiQ2iafZh4-15" value="" style="shape=partialRectangle;connectable=0;fillColor=none;top=0;left=0;bottom=0;right=0;editable=1;overflow=hidden;fontSize=21;" vertex="1" parent="4zepP4z_YuRiQ2iafZh4-14">
                    <mxGeometry width="40" height="30" as="geometry">
                        <mxRectangle width="40" height="30" as="alternateBounds"/>
                    </mxGeometry>
                </mxCell>
                <mxCell id="4zepP4z_YuRiQ2iafZh4-16" value="data_criacao: Date" style="shape=partialRectangle;connectable=0;fillColor=none;top=0;left=0;bottom=0;right=0;align=left;spacingLeft=6;overflow=hidden;fontSize=21;" vertex="1" parent="4zepP4z_YuRiQ2iafZh4-14">
                    <mxGeometry x="40" width="260" height="30" as="geometry">
                        <mxRectangle width="260" height="30" as="alternateBounds"/>
                    </mxGeometry>
                </mxCell>
                <mxCell id="4zepP4z_YuRiQ2iafZh4-17" value="" style="shape=tableRow;horizontal=0;startSize=0;swimlaneHead=0;swimlaneBody=0;fillColor=none;collapsible=0;dropTarget=0;points=[[0,0.5],[1,0.5]];portConstraint=eastwest;top=0;left=0;right=0;bottom=0;fontSize=21;" vertex="1" parent="4zepP4z_YuRiQ2iafZh4-1">
                    <mxGeometry y="180" width="300" height="30" as="geometry"/>
                </mxCell>
                <mxCell id="4zepP4z_YuRiQ2iafZh4-18" value="" style="shape=partialRectangle;connectable=0;fillColor=none;top=0;left=0;bottom=0;right=0;editable=1;overflow=hidden;fontSize=21;" vertex="1" parent="4zepP4z_YuRiQ2iafZh4-17">
                    <mxGeometry width="40" height="30" as="geometry">
                        <mxRectangle width="40" height="30" as="alternateBounds"/>
                    </mxGeometry>
                </mxCell>
                <mxCell id="4zepP4z_YuRiQ2iafZh4-19" value="data_atualizacao: Date" style="shape=partialRectangle;connectable=0;fillColor=none;top=0;left=0;bottom=0;right=0;align=left;spacingLeft=6;overflow=hidden;fontSize=21;" vertex="1" parent="4zepP4z_YuRiQ2iafZh4-17">
                    <mxGeometry x="40" width="260" height="30" as="geometry">
                        <mxRectangle width="260" height="30" as="alternateBounds"/>
                    </mxGeometry>
                </mxCell>
                <mxCell id="4zepP4z_YuRiQ2iafZh4-20" value="categorias" style="shape=table;startSize=30;container=1;collapsible=1;childLayout=tableLayout;fixedRows=1;rowLines=0;fontStyle=1;align=center;resizeLast=1;fontSize=21;" vertex="1" parent="1">
                    <mxGeometry x="780" y="215" width="300" height="160" as="geometry"/>
                </mxCell>
                <mxCell id="4zepP4z_YuRiQ2iafZh4-21" value="" style="shape=tableRow;horizontal=0;startSize=0;swimlaneHead=0;swimlaneBody=0;fillColor=none;collapsible=0;dropTarget=0;points=[[0,0.5],[1,0.5]];portConstraint=eastwest;top=0;left=0;right=0;bottom=1;fontSize=21;" vertex="1" parent="4zepP4z_YuRiQ2iafZh4-20">
                    <mxGeometry y="30" width="300" height="30" as="geometry"/>
                </mxCell>
                <mxCell id="4zepP4z_YuRiQ2iafZh4-22" value="PK" style="shape=partialRectangle;connectable=0;fillColor=none;top=0;left=0;bottom=0;right=0;fontStyle=1;overflow=hidden;fontSize=21;" vertex="1" parent="4zepP4z_YuRiQ2iafZh4-21">
                    <mxGeometry width="40" height="30" as="geometry">
                        <mxRectangle width="40" height="30" as="alternateBounds"/>
                    </mxGeometry>
                </mxCell>
                <mxCell id="4zepP4z_YuRiQ2iafZh4-23" value="id: UUID" style="shape=partialRectangle;connectable=0;fillColor=none;top=0;left=0;bottom=0;right=0;align=left;spacingLeft=6;fontStyle=5;overflow=hidden;fontSize=18;" vertex="1" parent="4zepP4z_YuRiQ2iafZh4-21">
                    <mxGeometry x="40" width="260" height="30" as="geometry">
                        <mxRectangle width="260" height="30" as="alternateBounds"/>
                    </mxGeometry>
                </mxCell>
                <mxCell id="4zepP4z_YuRiQ2iafZh4-24" value="" style="shape=tableRow;horizontal=0;startSize=0;swimlaneHead=0;swimlaneBody=0;fillColor=none;collapsible=0;dropTarget=0;points=[[0,0.5],[1,0.5]];portConstraint=eastwest;top=0;left=0;right=0;bottom=0;fontSize=21;" vertex="1" parent="4zepP4z_YuRiQ2iafZh4-20">
                    <mxGeometry y="60" width="300" height="40" as="geometry"/>
                </mxCell>
                <mxCell id="4zepP4z_YuRiQ2iafZh4-25" value="" style="shape=partialRectangle;connectable=0;fillColor=none;top=0;left=0;bottom=0;right=0;editable=1;overflow=hidden;fontSize=21;" vertex="1" parent="4zepP4z_YuRiQ2iafZh4-24">
                    <mxGeometry width="40" height="40" as="geometry">
                        <mxRectangle width="40" height="40" as="alternateBounds"/>
                    </mxGeometry>
                </mxCell>
                <mxCell id="4zepP4z_YuRiQ2iafZh4-26" value="nome: String(50)" style="shape=partialRectangle;connectable=0;fillColor=none;top=0;left=0;bottom=0;right=0;align=left;spacingLeft=6;overflow=hidden;fontSize=21;" vertex="1" parent="4zepP4z_YuRiQ2iafZh4-24">
                    <mxGeometry x="40" width="260" height="40" as="geometry">
                        <mxRectangle width="260" height="40" as="alternateBounds"/>
                    </mxGeometry>
                </mxCell>
                <mxCell id="4zepP4z_YuRiQ2iafZh4-33" value="" style="shape=tableRow;horizontal=0;startSize=0;swimlaneHead=0;swimlaneBody=0;fillColor=none;collapsible=0;dropTarget=0;points=[[0,0.5],[1,0.5]];portConstraint=eastwest;top=0;left=0;right=0;bottom=0;fontSize=21;" vertex="1" parent="4zepP4z_YuRiQ2iafZh4-20">
                    <mxGeometry y="100" width="300" height="30" as="geometry"/>
                </mxCell>
                <mxCell id="4zepP4z_YuRiQ2iafZh4-34" value="" style="shape=partialRectangle;connectable=0;fillColor=none;top=0;left=0;bottom=0;right=0;editable=1;overflow=hidden;fontSize=21;" vertex="1" parent="4zepP4z_YuRiQ2iafZh4-33">
                    <mxGeometry width="40" height="30" as="geometry">
                        <mxRectangle width="40" height="30" as="alternateBounds"/>
                    </mxGeometry>
                </mxCell>
                <mxCell id="4zepP4z_YuRiQ2iafZh4-35" value="data_criacao: Date" style="shape=partialRectangle;connectable=0;fillColor=none;top=0;left=0;bottom=0;right=0;align=left;spacingLeft=6;overflow=hidden;fontSize=21;" vertex="1" parent="4zepP4z_YuRiQ2iafZh4-33">
                    <mxGeometry x="40" width="260" height="30" as="geometry">
                        <mxRectangle width="260" height="30" as="alternateBounds"/>
                    </mxGeometry>
                </mxCell>
                <mxCell id="4zepP4z_YuRiQ2iafZh4-36" value="" style="shape=tableRow;horizontal=0;startSize=0;swimlaneHead=0;swimlaneBody=0;fillColor=none;collapsible=0;dropTarget=0;points=[[0,0.5],[1,0.5]];portConstraint=eastwest;top=0;left=0;right=0;bottom=0;fontSize=21;" vertex="1" parent="4zepP4z_YuRiQ2iafZh4-20">
                    <mxGeometry y="130" width="300" height="30" as="geometry"/>
                </mxCell>
                <mxCell id="4zepP4z_YuRiQ2iafZh4-37" value="" style="shape=partialRectangle;connectable=0;fillColor=none;top=0;left=0;bottom=0;right=0;editable=1;overflow=hidden;fontSize=21;" vertex="1" parent="4zepP4z_YuRiQ2iafZh4-36">
                    <mxGeometry width="40" height="30" as="geometry">
                        <mxRectangle width="40" height="30" as="alternateBounds"/>
                    </mxGeometry>
                </mxCell>
                <mxCell id="4zepP4z_YuRiQ2iafZh4-38" value="data_atualizacao: Date" style="shape=partialRectangle;connectable=0;fillColor=none;top=0;left=0;bottom=0;right=0;align=left;spacingLeft=6;overflow=hidden;fontSize=21;" vertex="1" parent="4zepP4z_YuRiQ2iafZh4-36">
                    <mxGeometry x="40" width="260" height="30" as="geometry">
                        <mxRectangle width="260" height="30" as="alternateBounds"/>
                    </mxGeometry>
                </mxCell>
                <mxCell id="4zepP4z_YuRiQ2iafZh4-40" value="produtos_categorias" style="shape=table;startSize=30;container=1;collapsible=1;childLayout=tableLayout;fixedRows=1;rowLines=0;fontStyle=1;align=center;resizeLast=1;fontSize=21;" vertex="1" parent="1">
                    <mxGeometry x="400" y="200" width="300" height="150" as="geometry"/>
                </mxCell>
                <mxCell id="4zepP4z_YuRiQ2iafZh4-41" value="" style="shape=tableRow;horizontal=0;startSize=0;swimlaneHead=0;swimlaneBody=0;fillColor=none;collapsible=0;dropTarget=0;points=[[0,0.5],[1,0.5]];portConstraint=eastwest;top=0;left=0;right=0;bottom=1;fontSize=21;" vertex="1" parent="4zepP4z_YuRiQ2iafZh4-40">
                    <mxGeometry y="30" width="300" height="30" as="geometry"/>
                </mxCell>
                <mxCell id="4zepP4z_YuRiQ2iafZh4-42" value="FK" style="shape=partialRectangle;connectable=0;fillColor=none;top=0;left=0;bottom=0;right=0;fontStyle=1;overflow=hidden;fontSize=21;" vertex="1" parent="4zepP4z_YuRiQ2iafZh4-41">
                    <mxGeometry width="40" height="30" as="geometry">
                        <mxRectangle width="40" height="30" as="alternateBounds"/>
                    </mxGeometry>
                </mxCell>
                <mxCell id="4zepP4z_YuRiQ2iafZh4-43" value="produto_id: UUID" style="shape=partialRectangle;connectable=0;fillColor=none;top=0;left=0;bottom=0;right=0;align=left;spacingLeft=6;fontStyle=5;overflow=hidden;fontSize=18;" vertex="1" parent="4zepP4z_YuRiQ2iafZh4-41">
                    <mxGeometry x="40" width="260" height="30" as="geometry">
                        <mxRectangle width="260" height="30" as="alternateBounds"/>
                    </mxGeometry>
                </mxCell>
                <mxCell id="4zepP4z_YuRiQ2iafZh4-59" value="" style="shape=tableRow;horizontal=0;startSize=0;swimlaneHead=0;swimlaneBody=0;fillColor=none;collapsible=0;dropTarget=0;points=[[0,0.5],[1,0.5]];portConstraint=eastwest;top=0;left=0;right=0;bottom=1;fontSize=18;" vertex="1" parent="4zepP4z_YuRiQ2iafZh4-40">
                    <mxGeometry y="60" width="300" height="30" as="geometry"/>
                </mxCell>
                <mxCell id="4zepP4z_YuRiQ2iafZh4-60" value="FK" style="shape=partialRectangle;connectable=0;fillColor=none;top=0;left=0;bottom=0;right=0;fontStyle=1;overflow=hidden;fontSize=18;" vertex="1" parent="4zepP4z_YuRiQ2iafZh4-59">
                    <mxGeometry width="40" height="30" as="geometry">
                        <mxRectangle width="40" height="30" as="alternateBounds"/>
                    </mxGeometry>
                </mxCell>
                <mxCell id="4zepP4z_YuRiQ2iafZh4-61" value="categoria_id: UUID" style="shape=partialRectangle;connectable=0;fillColor=none;top=0;left=0;bottom=0;right=0;align=left;spacingLeft=6;fontStyle=5;overflow=hidden;fontSize=18;" vertex="1" parent="4zepP4z_YuRiQ2iafZh4-59">
                    <mxGeometry x="40" width="260" height="30" as="geometry">
                        <mxRectangle width="260" height="30" as="alternateBounds"/>
                    </mxGeometry>
                </mxCell>
                <mxCell id="4zepP4z_YuRiQ2iafZh4-53" value="" style="shape=tableRow;horizontal=0;startSize=0;swimlaneHead=0;swimlaneBody=0;fillColor=none;collapsible=0;dropTarget=0;points=[[0,0.5],[1,0.5]];portConstraint=eastwest;top=0;left=0;right=0;bottom=0;fontSize=21;" vertex="1" parent="4zepP4z_YuRiQ2iafZh4-40">
                    <mxGeometry y="90" width="300" height="30" as="geometry"/>
                </mxCell>
                <mxCell id="4zepP4z_YuRiQ2iafZh4-54" value="" style="shape=partialRectangle;connectable=0;fillColor=none;top=0;left=0;bottom=0;right=0;editable=1;overflow=hidden;fontSize=21;" vertex="1" parent="4zepP4z_YuRiQ2iafZh4-53">
                    <mxGeometry width="40" height="30" as="geometry">
                        <mxRectangle width="40" height="30" as="alternateBounds"/>
                    </mxGeometry>
                </mxCell>
                <mxCell id="4zepP4z_YuRiQ2iafZh4-55" value="data_criacao: Date" style="shape=partialRectangle;connectable=0;fillColor=none;top=0;left=0;bottom=0;right=0;align=left;spacingLeft=6;overflow=hidden;fontSize=21;" vertex="1" parent="4zepP4z_YuRiQ2iafZh4-53">
                    <mxGeometry x="40" width="260" height="30" as="geometry">
                        <mxRectangle width="260" height="30" as="alternateBounds"/>
                    </mxGeometry>
                </mxCell>
                <mxCell id="4zepP4z_YuRiQ2iafZh4-56" value="" style="shape=tableRow;horizontal=0;startSize=0;swimlaneHead=0;swimlaneBody=0;fillColor=none;collapsible=0;dropTarget=0;points=[[0,0.5],[1,0.5]];portConstraint=eastwest;top=0;left=0;right=0;bottom=0;fontSize=21;" vertex="1" parent="4zepP4z_YuRiQ2iafZh4-40">
                    <mxGeometry y="120" width="300" height="30" as="geometry"/>
                </mxCell>
                <mxCell id="4zepP4z_YuRiQ2iafZh4-57" value="" style="shape=partialRectangle;connectable=0;fillColor=none;top=0;left=0;bottom=0;right=0;editable=1;overflow=hidden;fontSize=21;" vertex="1" parent="4zepP4z_YuRiQ2iafZh4-56">
                    <mxGeometry width="40" height="30" as="geometry">
                        <mxRectangle width="40" height="30" as="alternateBounds"/>
                    </mxGeometry>
                </mxCell>
                <mxCell id="4zepP4z_YuRiQ2iafZh4-58" value="data_atualizacao: Date" style="shape=partialRectangle;connectable=0;fillColor=none;top=0;left=0;bottom=0;right=0;align=left;spacingLeft=6;overflow=hidden;fontSize=21;" vertex="1" parent="4zepP4z_YuRiQ2iafZh4-56">
                    <mxGeometry x="40" width="260" height="30" as="geometry">
                        <mxRectangle width="260" height="30" as="alternateBounds"/>
                    </mxGeometry>
                </mxCell>
                <mxCell id="4zepP4z_YuRiQ2iafZh4-62" value="" style="edgeStyle=entityRelationEdgeStyle;fontSize=12;html=1;endArrow=ERzeroToMany;startArrow=ERmandOne;entryX=0;entryY=0.5;entryDx=0;entryDy=0;exitX=1;exitY=0.5;exitDx=0;exitDy=0;" edge="1" parent="1" source="4zepP4z_YuRiQ2iafZh4-11" target="4zepP4z_YuRiQ2iafZh4-59">
                    <mxGeometry width="100" height="100" relative="1" as="geometry">
                        <mxPoint x="340" y="360" as="sourcePoint"/>
                        <mxPoint x="440" y="260" as="targetPoint"/>
                    </mxGeometry>
                </mxCell>
                <mxCell id="4zepP4z_YuRiQ2iafZh4-63" value="" style="edgeStyle=entityRelationEdgeStyle;fontSize=12;html=1;endArrow=ERzeroToMany;startArrow=ERmandOne;entryX=1.009;entryY=1.019;entryDx=0;entryDy=0;entryPerimeter=0;exitX=0.009;exitY=-0.148;exitDx=0;exitDy=0;exitPerimeter=0;" edge="1" parent="1" source="4zepP4z_YuRiQ2iafZh4-36" target="4zepP4z_YuRiQ2iafZh4-59">
                    <mxGeometry width="100" height="100" relative="1" as="geometry">
                        <mxPoint x="750" y="520" as="sourcePoint"/>
                        <mxPoint x="930" y="480" as="targetPoint"/>
                    </mxGeometry>
                </mxCell>
            </root>
        </mxGraphModel>
    </diagram>
</mxfile>